Coordinates
version=1
nRows=26
nColumns=30
inDegrees=yes

Units are S.I. units (second, meters, Newtons, ...)
Angles are in degrees.

endheader
time	floatyaw	floatroll	floatpitch	floatx	floaty	floatz	pro_sup_l	deviation_l	flexion_l	cmc_flexion_l	cmc_abduction_l	mp_flexion_l	ip_flexion_l	2mcp_flexion_l	2mcp_abduction_l	2pm_flexion_l	2md_flexion_l	3mcp_flexion_l	3mcp_abduction_l	3pm_flexion_l	3md_flexion_l	4mcp_flexion_l	4mcp_abduction_l	4pm_flexion_l	4md_flexion_l	5mcp_flexion_l	5mcp_abduction_l	5pm_flexion_l	5md_flexion_l
-0.495000	-1.096539	-4.139632	93.798009	0.039461	-0.240642	0.048954	86.598712	12.101467	5.586224	6.562395	13.743012	-15.117664	-15.771040	37.391490	7.480243	20.873431	15.766209	26.283269	5.504064	24.775466	21.923560	12.623405	-3.442605	43.559656	32.365244	4.272989	-8.069004	41.885670	34.723093
-0.485000	-1.096539	-4.139632	93.798009	0.044707	-0.239089	0.054014	87.214603	13.330156	5.954022	5.652846	14.162322	-14.988312	-15.397775	38.540613	7.626652	20.726214	15.522022	27.685522	5.575350	24.485998	21.930990	13.831045	-3.369357	43.095597	32.643132	4.932284	-8.070907	41.833408	34.804167
-0.475000	-1.096539	-4.139632	93.798009	0.050108	-0.237682	0.059290	87.979679	14.503299	6.336605	4.878220	14.555368	-14.915550	-15.162135	39.685234	7.788061	20.686177	15.358749	29.034690	5.655619	24.357171	22.014052	14.978017	-3.335004	42.748495	32.987412	5.312065	-8.086954	42.080946	35.095781
-0.465000	-1.096539	-4.139632	93.798009	0.055628	-0.236474	0.064723	88.830665	15.599578	6.749912	4.220246	14.974645	-14.908777	-15.060708	40.816663	7.966612	20.733232	15.279309	30.311308	5.744297	24.359107	22.197834	16.050537	-3.340147	42.537631	33.388425	5.524114	-8.117308	42.517933	35.532165
-0.455000	-1.096539	-4.139632	93.798009	0.061253	-0.235495	0.070258	89.715473	16.610761	7.208152	3.642841	15.466148	-14.958824	-15.063111	41.905221	8.160368	20.852963	15.290684	31.503765	5.841251	24.450820	22.498244	17.057851	-3.380958	42.456546	33.835271	5.665516	-8.162742	43.049107	36.070425
-0.445000	-1.096539	-4.139632	93.798009	0.066974	-0.234747	0.075852	90.605379	17.535936	7.725368	3.102064	16.056494	-15.042806	-15.121582	42.910927	8.360793	21.035012	15.399015	32.602118	5.945085	24.597803	22.918019	18.016682	-3.449042	42.483200	34.316659	5.800214	-8.226221	43.605416	36.687470
-0.435000	-1.096539	-4.139632	93.798009	0.072779	-0.234223	0.081483	91.496017	18.375124	8.315717	2.555676	16.752732	-15.132301	-15.184386	43.798378	8.553648	21.271124	15.605565	33.594562	6.052076	24.784567	23.448302	18.941213	-3.533115	42.593333	34.821043	5.964601	-8.311391	44.140480	37.365812
-0.425000	-1.096539	-4.139632	93.798009	0.078648	-0.233914	0.087139	92.401487	19.127403	8.991960	1.971667	17.549465	-15.201754	-15.208451	44.547997	8.723908	21.554348	15.906508	34.469586	6.156600	25.015563	24.074271	19.841957	-3.622364	42.770223	35.337387	6.182928	-8.418215	44.623648	38.082953
-0.415000	-1.096539	-4.139632	93.798009	0.084552	-0.233819	0.092816	93.346843	19.794169	9.762745	1.334857	18.435408	-15.234776	-15.168162	45.159313	8.862482	21.878797	16.295869	35.222261	6.252627	25.304700	24.781476	20.728299	-3.709907	43.008206	35.857354	6.476208	-8.538942	45.038737	38.813191
-0.405000	-1.096539	-4.139632	93.798009	0.090462	-0.233944	0.098502	94.361175	20.383297	10.630276	0.649962	19.396426	-15.226649	-15.058736	45.646428	8.970709	22.239144	16.768682	35.859400	6.335235	25.660270	25.559964	21.609041	-3.794473	43.310542	36.377295	6.859694	-8.658219	45.387889	39.538454
-0.395000	-1.096539	-4.139632	93.798009	0.096346	-0.234291	0.104185	95.470829	20.909494	11.590000	-0.060418	20.416933	-15.182253	-14.893626	46.028867	9.059558	22.630188	17.321628	36.399220	6.401411	26.074230	26.404379	22.490057	-3.879289	43.683566	36.897517	7.336468	-8.758690	45.692442	40.256329
-0.385000	-1.096539	-4.139632	93.798009	0.102165	-0.234858	0.109841	96.692728	21.390157	12.632579	-0.763174	21.481603	-15.110684	-14.696924	46.322256	9.143867	23.047384	17.950594	36.865830	6.450035	26.521487	27.309430	23.371910	-3.968761	44.129786	37.418575	7.897089	-8.829222	45.984265	40.976143
-0.375000	-1.096539	-4.139632	93.798009	0.107868	-0.235636	0.115435	98.029496	21.839970	13.746773	-1.425359	22.576711	-15.019780	-14.493696	46.532943	9.235129	23.488332	18.647111	37.282622	6.481389	26.968699	28.262663	24.250640	-4.064907	44.642879	37.937107	8.527369	-8.870228	46.289716	41.705360
-0.365000	-1.096539	-4.139632	93.798009	0.113402	-0.236618	0.120923	99.468240	22.267837	14.921086	-2.023962	23.689746	-14.913733	-14.302289	46.658931	9.336871	23.953820	19.396441	37.668101	6.496653	27.387341	29.239232	25.122626	-4.165792	45.206731	38.444006	9.217545	-8.892280	46.616283	42.437650
-0.355000	-1.096539	-4.139632	93.798009	0.118719	-0.237802	0.126263	100.983062	22.677032	16.142914	-2.550561	24.807706	-14.794376	-14.131400	46.696465	9.444497	24.447003	20.178584	38.034576	6.497671	27.764880	30.203120	25.990867	-4.266728	45.798940	38.926138	9.965382	-8.909369	46.951744	43.152049
-0.345000	-1.096539	-4.139632	93.798009	0.123784	-0.239193	0.131420	102.539464	23.067141	17.395603	-3.009434	25.915931	-14.664083	-13.981899	46.648556	9.548747	24.970757	20.971515	38.387963	6.487023	28.109972	31.115423	26.867601	-4.363008	46.397737	39.371241	10.772175	-8.932039	47.277113	43.822532
-0.335000	-1.096539	-4.139632	93.798009	0.128584	-0.240796	0.136364	104.099046	23.436261	18.655282	-3.411199	26.998675	-14.527795	-13.851051	46.530564	9.640445	25.524735	21.755233	38.727532	6.468244	28.450081	31.946220	27.769639	-4.452077	46.990267	39.774235	11.636401	-8.964743	47.584744	44.429816
-0.325000	-1.096539	-4.139632	93.798009	0.133112	-0.242608	0.141071	105.624322	23.783000	19.889579	-3.765824	28.041021	-14.393159	-13.736386	46.369687	9.714307	26.103848	22.515809	39.046270	6.445877	28.822039	32.685261	28.708218	-4.533974	47.578895	40.141776	12.549771	-9.007648	47.889614	44.968293
-0.315000	-1.096539	-4.139632	93.798009	0.137370	-0.244615	0.145515	107.084131	24.108378	21.059731	-4.078118	29.031254	-14.269041	-13.637588	46.198593	9.770597	26.699003	23.249105	39.333277	6.425112	29.258552	33.347632	29.680217	-4.610328	48.181855	40.492052	13.496898	-9.059932	48.227435	45.447044
-0.305000	-1.096539	-4.139632	93.798009	0.141354	-0.246789	0.149666	108.458652	24.417084	22.126344	-4.346839	29.963125	-14.163024	-13.556300	46.046646	9.814419	27.299707	23.963224	39.578322	6.410933	29.776219	33.972025	30.667611	-4.683002	48.826646	40.849260	14.457248	-9.121641	48.642178	45.887672
-0.295000	-1.096539	-4.139632	93.798009	0.145059	-0.249098	0.153502	109.741490	24.717017	23.057380	-4.566979	30.837211	-14.078565	-13.494746	45.933617	9.853231	27.896849	24.677449	39.776844	6.407011	30.370480	34.610896	31.646203	-4.753258	49.538613	41.235474	15.407921	-9.193353	49.170870	46.320643
-0.285000	-1.096539	-4.139632	93.798009	0.148477	-0.251516	0.157008	110.937040	25.016503	23.835496	-4.734094	31.660150	-14.012952	-13.454068	45.869307	9.893831	28.483762	25.415823	39.933258	6.414772	31.019385	35.314361	32.597817	-4.821615	50.330238	41.664014	16.326675	-9.274949	49.832951	46.779346
-0.275000	-1.096539	-4.139632	93.798009	0.151602	-0.254020	0.160185	112.054284	25.320216	24.461650	-4.848995	32.441350	-13.957451	-13.433036	45.858055	9.940348	29.055637	26.197038	40.060962	6.433078	31.694116	36.112920	33.517754	-4.888232	51.196591	42.137183	17.194926	-9.365232	50.627562	47.290967
-0.265000	-1.096539	-4.139632	93.798009	0.154429	-0.256597	0.163046	113.100569	25.626103	24.953473	-4.920423	33.188790	-13.900385	-13.427659	45.902699	9.994170	29.609883	27.026619	40.178171	6.458796	32.372081	37.006323	34.413073	-4.953472	52.119208	42.648479	18.000075	-9.463088	51.538301	47.866158
-0.255000	-1.096539	-4.139632	93.798009	0.156957	-0.259230	0.165612	114.078349	25.925363	25.339270	-4.963754	33.906536	-13.832112	-13.432017	46.003079	10.055361	30.149358	27.897433	40.300316	6.488106	33.047702	37.964603	35.293828	-5.018321	53.075991	43.187336	18.736443	-9.569234	52.542251	48.492245
-0.245000	-1.096539	-4.139632	93.798009	0.159186	-0.261899	0.167911	114.985242	26.205593	25.650074	-4.996226	34.595269	-13.749200	-13.439914	46.150095	10.124075	30.686496	28.798633	40.432506	6.517878	33.736312	38.941612	36.164231	-5.084244	54.051042	43.743740	19.405082	-9.686827	53.618646	49.134280
